<svg xmlns="http://www.w3.org/2000/svg" xmlns:xlink="http://www.w3.org/1999/xlink" width="1920" zoomAndPan="magnify" viewBox="0 0 1440 809.999993" height="1080" preserveAspectRatio="xMidYMid meet" version="1.0"><defs><clipPath id="a38e62fb8e"><path d="M 401 260 L 443 260 L 443 270.972656 L 401 270.972656 Z M 401 260 " clip-rule="nonzero"/></clipPath><clipPath id="da13ad4fc2"><path d="M 26 64.722656 L 94 64.722656 L 94 88 L 26 88 Z M 26 64.722656 " clip-rule="nonzero"/></clipPath></defs><path fill="#000000" d="M 600.085938 147.441406 C 597.847656 149.324219 597.132812 147.578125 591.664062 149.320312 C 587.945312 150.503906 588.226562 150.046875 584.113281 151.636719 C 582.4375 152.285156 579.21875 154.632812 578.546875 155.695312 C 577.511719 157.339844 577.5625 157.519531 576.738281 157.519531 C 575.234375 157.519531 575.21875 159.246094 572.398438 159.285156 C 566.96875 159.367188 562.472656 164.472656 560.804688 165.328125 C 558.960938 166.28125 557.117188 168.851562 555.78125 169.09375 C 554.816406 169.269531 554.90625 169.484375 554.085938 169.855469 C 553.285156 170.214844 554.320312 169.898438 554.136719 170.375 C 553.835938 171.15625 556.550781 169.367188 558.457031 168.777344 C 561.734375 167.765625 561.957031 166.816406 564.640625 165.78125 C 565.414062 165.480469 566.34375 164.96875 566.710938 164.640625 C 569.785156 161.867188 574.585938 159.46875 575.308594 160.34375 C 575.925781 161.089844 577.988281 161.605469 579.289062 161.339844 C 580.394531 161.117188 582.066406 160.808594 582.128906 160.636719 C 582.378906 159.941406 582.519531 159.976562 584.414062 161.214844 C 587.257812 163.074219 587.667969 162.839844 585.191406 160.773438 C 583.363281 159.25 582.152344 158.027344 581.804688 157.351562 C 581.027344 155.855469 587.1875 152.070312 591.570312 151.351562 C 592.753906 151.15625 593.035156 150.53125 596.050781 149.777344 C 601.546875 148.402344 601.410156 146.324219 600.085938 147.441406 Z M 600.085938 147.441406 " fill-opacity="1" fill-rule="nonzero"/><path fill="#000000" d="M 381.941406 195.875 C 381.464844 195.714844 382.113281 195.117188 380.933594 195.703125 C 380.019531 196.15625 378.578125 196.164062 376.910156 195.726562 C 375.523438 195.363281 373.121094 195.203125 372.960938 195.460938 C 372.753906 195.800781 365.179688 195.699219 364.195312 196.308594 C 363.910156 196.484375 364.144531 195.738281 363.882812 196.148438 C 363.804688 196.273438 363.410156 196.511719 363.003906 196.683594 C 361.90625 197.140625 361.496094 197.710938 361.164062 197.582031 C 360.828125 197.453125 358.488281 198.710938 358.0625 199.25 C 357.683594 199.734375 356.785156 200.0625 356.605469 199.785156 C 355.878906 198.691406 354.367188 200.675781 353.566406 200.675781 C 353.320312 200.675781 352.957031 200.800781 352.757812 200.949219 C 352.519531 201.132812 351.9375 201.226562 351.050781 201.230469 C 349.007812 201.238281 350.179688 201.648438 348.910156 201.546875 C 347.511719 201.433594 346.632812 202.664062 345.390625 202.976562 C 345.121094 203.042969 344.433594 203.476562 343.867188 203.9375 C 342.082031 205.394531 333.992188 209.621094 333.644531 209.71875 C 332.722656 209.980469 332.214844 210.238281 332.308594 210.394531 C 332.472656 210.65625 333.023438 210.585938 333.902344 210.195312 C 335.097656 209.667969 335.503906 209.765625 336.097656 209.449219 C 336.671875 209.140625 338.160156 209.171875 338.917969 208.78125 C 339.207031 208.628906 339.554688 208.507812 339.691406 208.507812 C 339.828125 208.507812 340.53125 208.222656 341.253906 207.875 C 343.582031 206.757812 344.773438 207.035156 346.046875 206.011719 C 347.230469 205.0625 349.011719 204.03125 349.472656 204.03125 C 349.699219 204.03125 349.886719 203.960938 349.886719 203.867188 C 349.886719 203.539062 352.871094 202.625 353.042969 202.902344 C 353.113281 203.015625 353.257812 203.015625 353.425781 202.90625 C 353.910156 202.601562 354.730469 202.714844 355.34375 203.167969 C 356.691406 204.171875 360.5 204.289062 361.601562 203.359375 L 362.121094 202.921875 C 366.738281 206.226562 367.0625 205.566406 363.753906 202.890625 C 361.152344 200.789062 361.058594 200.511719 362.582031 199.53125 C 364.167969 198.511719 367.320312 197.332031 367.75 197.597656 C 367.84375 197.65625 368.476562 197.578125 369.152344 197.421875 C 370.984375 196.996094 372.472656 197.265625 373.789062 196.867188 C 374.417969 196.679688 375.21875 196.632812 376.59375 196.699219 C 378.402344 196.789062 382.699219 196.128906 381.941406 195.875 Z M 381.941406 195.875 " fill-opacity="1" fill-rule="nonzero"/><path fill="#000000" d="M 279.550781 171.664062 C 279.246094 172.027344 277.207031 172.738281 276.851562 172.601562 C 276.378906 172.417969 276.855469 172.898438 275.941406 172.898438 C 275.09375 172.898438 273.203125 173.410156 272.644531 173.792969 C 270.609375 175.175781 267.519531 174.648438 266.925781 175.242188 C 266.769531 175.398438 266.53125 175.488281 266.394531 175.4375 C 266.109375 175.324219 266.433594 175.417969 264.605469 176.316406 C 260.96875 178.105469 259.457031 181.789062 257.527344 181.113281 C 255.523438 180.414062 254.75 183.078125 253.113281 182.648438 C 252.558594 182.503906 252.976562 182.863281 252.242188 183.046875 C 251.238281 183.300781 248.867188 185.4375 247.839844 187.023438 C 247.519531 187.511719 246.945312 188.027344 246.332031 188.375 C 244.792969 189.246094 242.960938 191.539062 241.609375 192.140625 C 239.722656 192.972656 238.554688 194.296875 241.292969 192.964844 C 243.386719 191.945312 244.980469 191.769531 247.429688 190.410156 C 251.746094 188.019531 252.210938 188.210938 253.375 186.710938 C 255.226562 184.320312 256.398438 183.828125 258.339844 184.609375 C 259.636719 185.128906 265.738281 184.761719 266.257812 184.128906 C 266.582031 183.730469 266.804688 184.195312 266.910156 183.882812 C 266.980469 183.675781 269.476562 184.570312 269.480469 184.804688 C 269.480469 184.871094 269.816406 184.9375 270.222656 184.949219 C 271.496094 185 271.109375 184.550781 268.828125 183.328125 C 265.035156 181.296875 264.527344 180.398438 266.289062 178.839844 C 267.675781 177.617188 270.984375 176.207031 273.605469 175.722656 C 274.085938 175.632812 274.832031 175.296875 275.269531 174.976562 C 275.707031 174.652344 276.195312 174.386719 276.355469 174.386719 C 277.304688 174.371094 280.089844 172.332031 280.089844 171.648438 C 280.089844 171.332031 279.816406 171.339844 279.550781 171.664062 Z M 279.550781 171.664062 " fill-opacity="1" fill-rule="nonzero"/><g clip-path="url(#a38e62fb8e)"><path fill="#000000" d="M 441.566406 261.8125 C 440.027344 263.265625 435.132812 260.597656 435.132812 261.4375 C 435.132812 261.671875 433.429688 261.089844 432.058594 260.96875 C 431.546875 260.925781 431.101562 260.804688 431.066406 260.703125 C 430.992188 260.476562 429.734375 260.460938 429.734375 260.6875 C 429.734375 260.777344 428.875 260.824219 427.824219 260.792969 C 426.296875 260.746094 425.824219 260.792969 425.453125 261.039062 C 424.367188 261.753906 422.660156 262.488281 422.660156 262.238281 C 422.660156 261.863281 413.792969 262.503906 412.875 262.984375 C 410.628906 264.164062 409.820312 264.683594 408.640625 265.710938 C 408.246094 266.050781 407.808594 266.285156 407.660156 266.226562 C 407.285156 266.082031 407.632812 266.367188 406.886719 266.632812 C 406.148438 266.898438 404.066406 268.605469 403.210938 269.046875 C 402.332031 269.5 401.257812 270.410156 401.257812 270.699219 C 401.257812 270.84375 401.277344 270.960938 401.304688 270.960938 C 401.414062 270.957031 403.042969 270.390625 403.1875 270.535156 C 403.246094 270.59375 403.488281 270.511719 403.730469 270.351562 C 404.296875 269.980469 405.929688 269.5 406.25 269.613281 C 406.628906 269.742188 408.191406 269.253906 408.597656 268.875 C 409.355469 268.167969 409.558594 268.816406 410.335938 268.109375 C 410.871094 267.625 411.359375 267.769531 411.789062 267.335938 C 412.207031 266.917969 413.355469 267.132812 413.355469 266.875 C 413.355469 266.78125 413.597656 266.648438 413.898438 266.585938 C 414.195312 266.519531 414.695312 266.222656 415.003906 265.925781 C 418.546875 262.535156 419.304688 266.46875 421.226562 266.503906 C 425.234375 266.574219 425.710938 267.277344 426.820312 266.429688 C 427.609375 265.824219 428.007812 265.910156 429.410156 266.976562 C 431.394531 268.492188 431.347656 268.027344 429.269531 265.621094 C 427.34375 263.394531 427.421875 262.945312 429.730469 262.945312 C 430.039062 262.945312 430.292969 262.863281 430.292969 262.757812 C 430.292969 262.449219 434.425781 262.535156 435.914062 262.875 C 436.640625 263.039062 437.640625 263.136719 438.136719 263.085938 C 438.722656 263.03125 439.039062 263.074219 439.042969 263.207031 C 439.046875 263.355469 439.082031 263.355469 439.183594 263.207031 C 439.433594 262.828125 441.707031 263.285156 442.121094 261.984375 C 442.300781 261.417969 442.066406 261.34375 441.566406 261.8125 Z M 441.566406 261.8125 " fill-opacity="1" fill-rule="nonzero"/></g><path fill="#000000" d="M 568.269531 209.863281 C 567.011719 210.789062 565.789062 210.960938 562.957031 210.609375 C 559.292969 210.152344 560.410156 210.792969 555.785156 210.769531 C 552.054688 210.75 549.792969 211.28125 548.765625 212.417969 C 548.578125 212.625 548.273438 212.796875 548.085938 212.796875 C 547.195312 212.796875 544.671875 215.003906 542.699219 214.46875 C 541.484375 214.140625 538.960938 215.101562 539.734375 215.597656 C 540.238281 215.921875 539.5625 216.144531 538.054688 216.148438 C 534.191406 216.15625 533.101562 219.507812 530.101562 220.886719 C 528.414062 221.664062 526.585938 223.308594 525.082031 224.105469 C 523.785156 224.792969 524.1875 224.949219 523.347656 225.382812 C 522.570312 225.785156 522.804688 226.246094 522.9375 226.183594 C 527.550781 223.941406 528.34375 224.746094 532.382812 222.777344 C 536.207031 220.914062 536.117188 221.722656 537.546875 220.234375 C 539.386719 218.3125 542.335938 216.867188 543.0625 217.527344 C 544.007812 218.386719 549.757812 218.996094 550.503906 218.316406 C 550.910156 217.949219 551.90625 218.398438 553.0625 219.476562 C 553.515625 219.902344 554.625 220.503906 554.738281 220.386719 C 555.347656 219.777344 549.695312 216.136719 550.230469 214.742188 C 550.375 214.363281 552.851562 213.167969 553.488281 213.167969 C 553.789062 213.167969 554.0625 213.082031 554.097656 212.972656 C 554.199219 212.675781 557.308594 212.238281 559.371094 212.234375 C 562.246094 212.230469 562.273438 211.675781 564.285156 211.675781 C 566.082031 211.675781 568.957031 210.691406 568.957031 210.078125 C 568.957031 209.949219 569.015625 209.691406 569.085938 209.503906 C 569.175781 209.269531 568.929688 209.378906 568.269531 209.863281 Z M 568.269531 209.863281 " fill-opacity="1" fill-rule="nonzero"/><path fill="#000000" d="M 480.035156 237.984375 C 477.039062 240.800781 468.257812 238.226562 463.007812 240.746094 C 462.136719 241.164062 461.203125 241.503906 460.929688 241.503906 C 459.753906 241.503906 458.691406 243.535156 457.488281 242.78125 C 456.847656 242.382812 456.144531 243.386719 454.117188 244.113281 C 452.597656 244.652344 451.535156 244.863281 450.28125 244.863281 C 448.480469 244.863281 445.871094 245.835938 444.253906 247.109375 C 443.269531 247.886719 437.519531 249.515625 435.410156 250.460938 C 434.832031 250.71875 433.980469 250.644531 433.875 250.96875 C 433.667969 251.589844 435.980469 250.730469 439.039062 250.566406 C 442.695312 250.367188 443.988281 248.96875 446.019531 248.921875 C 447.789062 248.882812 449.804688 246.914062 450.617188 246.914062 C 450.800781 246.914062 450.953125 246.835938 450.953125 246.742188 C 450.953125 246.519531 452.0625 246.140625 452.296875 246.285156 C 452.398438 246.347656 452.550781 246.289062 452.636719 246.148438 C 452.898438 245.726562 454.675781 246.113281 454.675781 245.792969 C 454.675781 245.304688 455.785156 245.625 456.261719 246.246094 C 457.207031 247.488281 460.585938 248.105469 462.261719 247.34375 C 463.746094 246.667969 463.84375 246.808594 465.042969 247.554688 C 468.710938 249.84375 468.886719 249.394531 465.421875 246.578125 C 462.378906 244.109375 462.367188 244.035156 464.773438 242.921875 C 470.210938 240.40625 471.84375 241.808594 475.375 240.648438 C 476.164062 240.386719 476.960938 240.195312 477.140625 240.214844 C 478.523438 240.386719 480.734375 238.429688 480.734375 237.746094 C 480.730469 237.355469 480.6875 237.371094 480.035156 237.984375 Z M 480.035156 237.984375 " fill-opacity="1" fill-rule="nonzero"/><path fill="#000000" d="M 239.046875 157.617188 C 243.390625 157.617188 242.382812 157.085938 244.957031 156.765625 C 247.238281 156.480469 248.652344 153.792969 246.96875 154.992188 C 245.917969 155.742188 244.964844 155.867188 241.773438 155.671875 C 239.074219 155.507812 239.921875 155.957031 235.308594 156 C 230.277344 156.042969 233.351562 156.394531 229.785156 156.769531 C 229.078125 156.84375 227.972656 157.382812 227.972656 157.652344 C 227.972656 157.730469 227.867188 157.796875 227.738281 157.796875 C 227.609375 157.796875 227.085938 158.019531 226.574219 158.292969 C 225.800781 158.707031 225.335938 158.804688 223.785156 158.878906 C 220.375 159.046875 222.78125 159.597656 218.667969 159.742188 C 215.128906 159.871094 212.90625 163.167969 210.824219 163.945312 C 209.390625 164.476562 208.953125 165.011719 207.4375 165.898438 C 205.996094 166.746094 206.464844 167.417969 205.816406 167.25 C 205.351562 167.128906 205.285156 167.378906 204.1875 168.128906 C 201.546875 169.925781 205.492188 168.355469 206.058594 168.445312 C 206.308594 168.484375 210.140625 167.480469 211.746094 166.671875 C 214.683594 165.195312 215.566406 165.738281 217.371094 164.066406 C 219.734375 161.871094 222.199219 161.023438 223.546875 161.941406 C 225.625 163.363281 229.648438 163.035156 229.648438 163.824219 C 229.648438 163.953125 229.726562 163.945312 229.871094 163.800781 C 230.207031 163.464844 231.070312 163.683594 231.183594 163.347656 C 231.226562 163.214844 231.671875 163.507812 232.269531 164.066406 C 235.140625 166.753906 235.796875 166.59375 233.648438 163.734375 C 229.964844 158.839844 231.046875 157.617188 239.046875 157.617188 Z M 239.046875 157.617188 " fill-opacity="1" fill-rule="nonzero"/><path fill="#000000" d="M 559.453125 234.523438 C 559.34375 234.589844 559.179688 234.84375 559.085938 235.085938 C 558.484375 236.675781 547.527344 237.617188 544.855469 241.679688 C 544.296875 242.527344 543.746094 242.339844 542.9375 243.289062 C 541.949219 244.449219 541.082031 244.375 538.523438 242.917969 C 534.375 240.554688 531.933594 240.214844 524.332031 240.941406 C 522.058594 241.160156 520.476562 241.507812 521.757812 241.507812 C 522.378906 241.507812 521.351562 241.949219 524.101562 241.46875 C 527.425781 240.886719 530.726562 240.8125 531.8125 241.292969 C 533.300781 241.953125 533.726562 241.429688 534.949219 242.664062 C 535.53125 243.246094 536.757812 242.582031 536.757812 242.957031 C 536.757812 243.066406 537.050781 243.335938 537.40625 243.558594 C 538.144531 244.011719 538.253906 244.320312 537.660156 244.253906 C 537.113281 244.191406 537.03125 244.675781 537.375 244.675781 C 537.71875 244.675781 538.976562 246.109375 539.9375 247.121094 C 540.839844 248.070312 545.597656 248.730469 546.359375 248.011719 L 546.777344 247.621094 C 547.355469 248.019531 548.9375 249.121094 549.457031 249.328125 C 550.847656 249.886719 550.617188 249.429688 548.40625 247.246094 C 545.710938 244.582031 545.71875 244.195312 548.472656 241.636719 C 550.207031 240.03125 554.710938 237.617188 556.019531 237.597656 C 556.796875 237.582031 557.34375 236.691406 557.984375 237.035156 C 558.332031 237.222656 558.460938 237.019531 558.371094 236.425781 C 558.355469 236.347656 558.554688 236.285156 558.804688 236.285156 C 559.535156 236.285156 558.871094 235.976562 559.359375 235.484375 C 559.6875 235.15625 559.765625 234.328125 559.453125 234.523438 Z M 559.453125 234.523438 " fill-opacity="1" fill-rule="nonzero"/><path fill="#000000" d="M 526.863281 156.132812 C 531.429688 154.328125 531.378906 152.964844 534.582031 151.269531 C 537.679688 149.636719 539.925781 145.96875 544.8125 144.382812 C 546.449219 143.851562 547.308594 145.804688 550.902344 144.839844 C 552.539062 144.398438 553.003906 144.722656 553.457031 144.1875 C 553.882812 143.691406 553.882812 143.691406 555.027344 144.625 C 556.253906 145.628906 558.160156 146.863281 558.285156 146.734375 C 558.824219 146.195312 554.324219 143.148438 553.1875 141.308594 C 552.929688 140.890625 552.554688 140.417969 552.347656 140.253906 C 550.96875 139.15625 556.078125 135.226562 561.179688 133.460938 C 564.050781 132.46875 562.445312 132.183594 566.335938 131.195312 C 570.894531 130.039062 574.550781 126.910156 570.457031 128.707031 C 568.191406 129.703125 565.820312 129.394531 562.839844 130.375 C 558.847656 131.6875 556.890625 131.355469 553.878906 133.542969 C 552.351562 134.648438 552.785156 133.460938 547.886719 138.183594 C 547.507812 138.546875 547.101562 139.078125 546.984375 139.359375 C 546.710938 140.027344 545.625 140.253906 544.785156 139.820312 C 543.152344 138.972656 543.449219 140.605469 541.863281 141.042969 C 541.070312 141.265625 541.03125 141.679688 541.792969 141.832031 C 542.910156 142.054688 543.191406 142.730469 542.195312 142.804688 C 539.855469 142.980469 533.449219 146.820312 531.84375 149.003906 C 530.886719 150.3125 527.363281 153.335938 526.980469 154.078125 C 526.835938 154.359375 526.425781 154.769531 526.074219 154.988281 C 525.117188 155.582031 525.132812 156.1875 523.957031 157.039062 C 523.523438 157.355469 523.167969 157.695312 523.167969 157.796875 C 523.167969 158.617188 525.335938 156.734375 526.863281 156.132812 Z M 526.863281 156.132812 " fill-opacity="1" fill-rule="nonzero"/><path fill="#000000" d="M 80.746094 120.75 C 79.339844 118.589844 79.339844 118.453125 80.699219 117.847656 C 85.914062 115.519531 95.824219 117.601562 95.824219 118.648438 C 95.824219 118.75 96.007812 118.832031 96.230469 118.832031 C 97.027344 118.832031 97.378906 119.914062 97.574219 119.273438 C 97.734375 119.324219 97.890625 119.386719 98.039062 119.464844 C 98.585938 120.160156 98.617188 119.089844 97.578125 119.078125 C 97.578125 119.078125 97.109375 118.875 96.058594 118.171875 C 95.277344 117.644531 94.199219 117.140625 93.21875 116.839844 C 89.277344 115.628906 94.054688 116.6875 87.859375 115.390625 C 84.601562 114.707031 78.261719 115.515625 76.707031 116.8125 C 76.398438 117.070312 72.929688 117.53125 72.929688 117.3125 C 72.929688 116.863281 78.523438 112.910156 80.226562 112.160156 C 81.1875 111.734375 84.839844 111.609375 84.839844 112.003906 C 84.839844 112.5 83.894531 112.207031 84.683594 112.558594 C 84.953125 112.679688 85.632812 113.207031 86.1875 113.738281 C 88.402344 115.835938 92.902344 115.617188 93.34375 113.386719 C 93.472656 112.753906 93.492188 112.753906 94.734375 113.332031 C 96.636719 114.21875 96.617188 113.710938 94.695312 112.3125 C 92.972656 111.058594 92.859375 110.808594 93.582031 109.894531 C 96.46875 106.242188 102.972656 105.226562 105.898438 107.964844 C 106.515625 108.546875 106.804688 108.71875 106.804688 108.511719 C 106.804688 107.246094 108.550781 110.9375 108.046875 108.308594 C 110.425781 110.316406 109.101562 108.578125 110.195312 108.578125 C 110.671875 108.578125 110.191406 107.929688 109.570312 107.730469 C 109.132812 107.59375 109.117188 107.28125 109.550781 107.25 C 109.9375 107.222656 108.875 107.09375 106.523438 106.441406 C 102.804688 105.40625 101.050781 105.269531 97.96875 105.773438 C 93.832031 106.453125 93.402344 106.65625 91.160156 108.972656 C 88.097656 112.140625 89.082031 110.4375 87.90625 111.261719 C 87.59375 111.480469 87.359375 111.480469 86.332031 111.253906 C 81.4375 110.195312 76.265625 111.257812 74.882812 113.605469 C 74.410156 114.410156 73.890625 114.726562 71.347656 117.289062 L 69.394531 117.230469 C 66.785156 117.152344 62.828125 118.367188 61.050781 119.789062 C 59.371094 121.136719 57.425781 121.273438 55.339844 122.921875 C 54.929688 123.25 53.851562 123.796875 52.222656 124.511719 C 48.726562 126.042969 54.675781 124.304688 56.738281 123.945312 C 59.613281 123.445312 60.664062 122.707031 64.328125 121.621094 C 64.972656 121.433594 65.828125 121.015625 66.226562 120.699219 C 67.085938 120.015625 68.980469 119.023438 69.429688 119.019531 C 69.84375 119.019531 70.046875 119.371094 69.785156 119.632812 C 69.574219 119.84375 69.296875 120.484375 70.238281 119.515625 C 71.242188 118.476562 71.953125 118.546875 72.699219 119.75 C 74.074219 121.964844 78.085938 122.125 78.910156 121.132812 C 79.222656 120.753906 79.320312 120.804688 80.441406 121.910156 C 82.230469 123.667969 82.347656 123.21875 80.746094 120.75 Z M 80.746094 120.75 " fill-opacity="1" fill-rule="nonzero"/><g clip-path="url(#da13ad4fc2)"><path fill="#000000" d="M 60.363281 83.773438 C 61.6875 83.421875 62.503906 83.105469 62.6875 82.871094 C 64.457031 80.609375 68.429688 79.996094 70.480469 81.667969 C 72.054688 82.949219 75.308594 83.109375 77.113281 81.996094 C 78.421875 81.1875 78.875 81.089844 79.007812 80.414062 C 79.144531 79.742188 79.046875 79.734375 80.941406 80.515625 C 83.789062 81.691406 83.898438 81.175781 81.144531 79.554688 C 77.871094 77.625 77.828125 77.496094 79.800781 75.574219 C 81.777344 73.644531 86.292969 71.414062 89.054688 71 C 90.117188 70.839844 90.195312 70.527344 91.953125 68.671875 C 93.257812 67.296875 93.640625 65 92.601562 64.800781 C 92.226562 64.726562 90.984375 65.933594 90.984375 66.363281 C 90.984375 66.511719 90.820312 66.632812 90.625 66.632812 C 90.039062 66.632812 90.234375 67.460938 89.707031 67.292969 C 89.320312 67.167969 86.957031 68.007812 86.441406 68.453125 C 85.71875 69.074219 85.667969 69.324219 83.800781 69.695312 C 81.976562 70.058594 80.136719 70.710938 78.75 71.492188 C 76.613281 72.691406 77.179688 71.671875 66.230469 68.773438 C 59.390625 66.964844 59.125 67.621094 58.726562 66.820312 C 58.21875 65.796875 56.265625 65.632812 55.558594 66.558594 C 55.253906 66.953125 55.070312 67.003906 53.914062 67.003906 C 51.78125 67.003906 48.113281 68.308594 47.105469 68.308594 C 46.332031 68.3125 45.84375 68.867188 44.847656 68.871094 C 42.339844 68.890625 41.75 70.109375 40.476562 70.640625 C 39.300781 71.132812 36.609375 73.847656 34.800781 74.246094 C 33.65625 74.496094 31.589844 75.414062 30.773438 76.03125 C 28.644531 77.644531 25.550781 76.359375 26.136719 77.894531 C 26.289062 78.289062 26.960938 78.269531 28.585938 77.816406 C 31.597656 76.980469 33.929688 78.140625 38.867188 75.585938 C 40.375 74.808594 42.898438 74.355469 43.277344 73.921875 C 44.210938 72.84375 44.96875 71.203125 47.789062 70.054688 C 48.929688 69.589844 49.203125 69.652344 50.066406 70.582031 C 52.09375 72.75 57.597656 72.429688 58.632812 70.078125 L 59.0625 69.097656 C 63.132812 71.160156 64.316406 70.859375 62.738281 69.855469 C 61.996094 69.382812 62.308594 69.503906 61.574219 68.976562 C 60.203125 67.988281 66.460938 69.339844 70.164062 70.832031 C 71.046875 71.1875 72.066406 71.476562 72.425781 71.476562 C 73.355469 71.476562 75.652344 72.40625 76.09375 72.414062 C 77.617188 72.433594 76.042969 73.4375 75.386719 74.742188 C 74.835938 75.835938 73.96875 76.328125 73.558594 77.121094 C 73.253906 77.703125 71.652344 78.5625 70.871094 78.5625 C 70.59375 78.5625 70.054688 78.695312 69.667969 78.855469 C 68.660156 79.277344 65.71875 79.71875 64.738281 79.59375 C 62.617188 79.328125 59.058594 80.632812 57.066406 82.410156 C 55.710938 83.617188 55.640625 82.726562 52.953125 84.347656 C 51.214844 85.398438 51.480469 84.972656 51.160156 85.359375 C 50.839844 85.746094 49.628906 85.984375 49.445312 86.265625 C 49.234375 86.597656 46.3125 86.4375 46.3125 86.976562 C 46.3125 87.066406 46.65625 87.089844 47.078125 87.019531 C 49.066406 86.703125 45.78125 88.550781 49.757812 86.765625 C 50.167969 86.582031 51.546875 86.203125 52.828125 85.925781 C 56.179688 85.199219 57.082031 84.644531 60.363281 83.773438 Z M 60.363281 83.773438 " fill-opacity="1" fill-rule="nonzero"/></g><path fill="#000000" d="M 528.527344 128.773438 C 531.464844 127.214844 532.011719 126.816406 534.058594 124.734375 C 537.402344 121.332031 537.292969 122.035156 537.859375 120.136719 C 538.824219 116.914062 540.160156 115.800781 541.640625 114.316406 C 545.414062 114.742188 548.109375 113.652344 548.695312 113.027344 L 549.191406 112.492188 C 553.585938 116.277344 552.894531 114.90625 552.765625 114.828125 C 552.429688 114.617188 550.046875 111.679688 549.515625 110.816406 C 548.890625 109.800781 548.34375 109.335938 547.785156 109.328125 C 547.304688 109.324219 547.285156 109.265625 547.582031 108.707031 C 548.492188 106.992188 550.761719 105.191406 554.023438 103.597656 C 557.199219 102.042969 556.234375 102.296875 558.511719 100.113281 C 560.054688 98.632812 559.820312 97.203125 559.742188 95.808594 C 559.015625 96.976562 558.671875 97.632812 557.648438 98.070312 C 556.753906 98.453125 557.222656 98.699219 556.679688 98.699219 C 555.492188 98.699219 553.3125 100.976562 552.191406 101.1875 C 550.347656 101.535156 544.464844 104.425781 542.511719 109.480469 C 542.050781 110.675781 542.011719 110.722656 541.441406 110.675781 C 540.570312 110.605469 541.058594 111.003906 540.523438 111.003906 C 540.34375 111.003906 539.738281 111.429688 539.175781 111.953125 C 537.1875 113.808594 533.785156 114.386719 532.289062 120.855469 C 532.121094 121.574219 531.828125 122.113281 531.25 122.765625 C 530.261719 123.878906 528.9375 125.65625 528.9375 125.871094 C 528.9375 126.117188 527.636719 127.152344 527.636719 127.621094 C 527.636719 128.039062 527.488281 127.859375 526.722656 128.996094 C 526.003906 130.0625 526.125 130.050781 528.527344 128.773438 Z M 528.527344 128.773438 " fill-opacity="1" fill-rule="nonzero"/><path fill="#000000" d="M 119.046875 82.542969 C 117.554688 83.160156 116.25 83.066406 112.945312 82.109375 C 110.386719 81.371094 110.542969 82.195312 107.15625 81.644531 C 103.617188 81.070312 98.988281 81.460938 97.171875 82.488281 C 93.457031 84.589844 93.695312 84.714844 91.929688 84.933594 C 89.371094 85.25 90.671875 85.675781 86.980469 86.214844 C 85.734375 86.394531 81.785156 86.753906 78.945312 90.242188 C 77.820312 91.621094 77.671875 91.742188 76.957031 91.875 C 74.742188 92.292969 71.695312 95.714844 70.652344 95.714844 C 70.472656 95.714844 70.324219 95.832031 70.324219 95.972656 C 70.324219 96.40625 68.625 96.53125 68.9375 97.035156 C 69.042969 97.207031 69.558594 97.042969 70.664062 96.476562 C 71.0625 96.273438 72.425781 95.804688 73.695312 95.433594 C 77.253906 94.390625 78.902344 93.070312 81.886719 91.804688 C 85.144531 90.421875 84.28125 88.515625 90.320312 87.355469 L 91.003906 87.972656 C 92.75 89.554688 97.273438 89.757812 98.183594 88.300781 C 98.359375 88.019531 98.527344 87.757812 98.558594 87.714844 C 98.589844 87.671875 99.347656 87.980469 100.242188 88.402344 C 103.136719 89.769531 103.785156 89.636719 101.65625 88.117188 C 97.941406 85.46875 97.839844 85.261719 99.777344 84.308594 C 102.542969 82.949219 108.703125 82.417969 113.320312 83.140625 C 116.585938 83.65625 118.769531 83.574219 119.0625 82.925781 C 119.238281 82.542969 119.234375 82.464844 119.046875 82.542969 Z M 119.046875 82.542969 " fill-opacity="1" fill-rule="nonzero"/><path fill="#000000" d="M 116.871094 129.757812 C 116.175781 128.917969 109.386719 126.882812 106.246094 126.574219 C 105.582031 126.511719 104.65625 126.367188 104.191406 126.253906 C 101.761719 125.675781 99.8125 129.910156 97.777344 127.78125 C 97.195312 127.171875 96.671875 127.085938 96.117188 127.503906 C 95.304688 128.121094 93.601562 126.933594 94.800781 128.230469 C 95.054688 128.507812 95.265625 128.8125 95.265625 128.910156 C 95.265625 129.390625 91.871094 128.894531 90.84375 129.5625 C 87.484375 131.746094 86.742188 134.847656 84.773438 135.394531 C 83.601562 135.71875 81.039062 138.117188 79.738281 139.023438 C 79.472656 139.207031 79.257812 139.4375 79.257812 139.535156 C 79.257812 139.792969 79.367188 139.769531 80.921875 139.167969 C 83.382812 138.210938 84.078125 138.402344 86.875 136.960938 C 90.136719 135.273438 92.285156 134.953125 92.285156 134.246094 C 92.285156 133.386719 95.121094 131.136719 96.203125 131.136719 C 96.445312 131.136719 96.640625 130.992188 96.699219 130.765625 C 96.808594 130.347656 97.3125 130.25 97.3125 130.644531 C 97.3125 132.84375 103.050781 133.132812 104.089844 133.226562 C 104.632812 132.546875 104.496094 132.71875 104.917969 132.1875 C 108.226562 134.5 109.269531 135.039062 106.339844 132.015625 C 104.1875 129.796875 104.105469 129.472656 105.546875 128.9375 C 108 128.03125 113.667969 128.464844 114.382812 129.613281 C 114.78125 130.25 114.726562 130.320312 115.078125 130.023438 C 115.3125 129.828125 115.390625 129.871094 115.542969 130.277344 C 115.746094 130.804688 116.109375 130.9375 116.109375 130.484375 C 116.109375 130.113281 116.289062 130.132812 116.613281 130.53125 C 116.804688 130.769531 116.90625 130.792969 116.976562 130.625 C 117.113281 130.292969 118.269531 130.476562 118.4375 130.203125 C 118.613281 129.917969 117.195312 130.148438 116.871094 129.757812 Z M 116.871094 129.757812 " fill-opacity="1" fill-rule="nonzero"/></svg>