<svg xmlns="http://www.w3.org/2000/svg" xmlns:xlink="http://www.w3.org/1999/xlink" width="1920" zoomAndPan="magnify" viewBox="0 0 1440 809.999993" height="1080" preserveAspectRatio="xMidYMid meet" version="1.0"><defs><clipPath id="3742920493"><path d="M 0 510 L 1439.914062 510 L 1439.914062 810 L 0 810 Z M 0 510 " clip-rule="nonzero"/></clipPath></defs><path fill="#b6c26b" d="M -129.085938 519.164062 L -129.085938 828.472656 L 27.609375 828.472656 C 42.191406 823.613281 56.769531 818.363281 71.351562 813.503906 C 249.820312 754.207031 440.925781 746.042969 629.113281 740.796875 C 857.542969 734.574219 1086.167969 731.65625 1314.796875 732.433594 C 1335.015625 732.433594 1356.402344 732.433594 1374.480469 723.101562 C 1392.753906 713.769531 1406.363281 692.386719 1399.753906 673.140625 C 1394.308594 657.585938 1378.5625 648.839844 1363.789062 641.644531 C 1254.527344 588.960938 1135.550781 556.492188 1014.625 545.414062 C 1011.128906 545.023438 1007.824219 544.632812 1004.324219 544.441406 C 1004.714844 544.246094 1005.296875 544.050781 1005.683594 543.664062 C 1006.460938 542.300781 1006.851562 540.355469 1005.878906 539.191406 C 1004.90625 538.023438 1003.546875 537.832031 1002.183594 537.636719 C 995.769531 536.664062 989.355469 538.21875 983.910156 541.71875 C 985.464844 540.355469 985.273438 537.636719 983.910156 536.273438 C 982.355469 534.914062 980.023438 534.71875 978.078125 535.691406 C 976.328125 536.46875 974.96875 538.414062 974.382812 540.355469 C 971.855469 539.582031 970.300781 537.054688 968.746094 534.914062 C 967.191406 532.773438 965.050781 530.441406 962.332031 530.636719 C 959.800781 530.636719 957.859375 533.359375 957.859375 535.886719 C 957.859375 538.21875 959.21875 540.355469 960.972656 541.914062 C 894.871094 539.191406 828.769531 542.882812 763.449219 553.382812 C 743.230469 556.492188 723.207031 560.574219 702.988281 564.660156 C 703.378906 561.160156 702.40625 557.273438 699.683594 555.714844 C 694.046875 552.214844 689.183594 563.296875 687.242188 566.992188 C 688.40625 565.046875 688.210938 562.324219 686.65625 560.769531 C 685.105469 559.023438 682.378906 558.632812 680.4375 559.992188 C 678.6875 561.355469 678.296875 564.269531 679.660156 565.824219 C 678.105469 564.855469 676.546875 563.878906 674.796875 563.492188 C 673.046875 563.101562 670.910156 563.296875 669.742188 564.660156 C 668.382812 566.019531 668.1875 568.351562 669.742188 569.519531 C 662.746094 568.933594 655.746094 570.296875 649.527344 573.40625 C 648.164062 574.183594 646.804688 575.351562 646.996094 576.90625 C 569.816406 594.597656 492.832031 613.453125 413.898438 617.925781 C 362.578125 620.84375 311.253906 617.539062 260.511719 610.34375 C 262.453125 608.789062 264.398438 607.234375 265.761719 605.871094 C 267.511719 604.125 269.066406 601.015625 267.121094 599.457031 C 266.148438 598.679688 264.785156 598.679688 263.621094 598.875 C 260.121094 599.457031 256.816406 600.820312 253.902344 602.570312 C 255.84375 600.625 256.234375 596.738281 253.902344 594.792969 C 251.761719 592.847656 248.070312 593.625 246.125 595.765625 C 248.652344 590.125 248.457031 583.710938 245.734375 578.265625 C 244.179688 575.15625 240.679688 572.046875 237.375 573.601562 C 235.433594 574.574219 234.65625 576.710938 234.070312 578.851562 C 232.320312 585.070312 232.320312 591.679688 233.878906 597.902344 C 230.765625 594.792969 226.296875 593.042969 221.824219 593.042969 C 221.046875 595.957031 222.988281 599.457031 225.90625 600.234375 C 224.15625 599.652344 222.40625 599.070312 220.460938 599.261719 C 218.714844 599.457031 216.769531 600.625 216.378906 602.375 L 216.378906 603.152344 C 132.976562 587.597656 50.742188 562.519531 -30.328125 537.054688 C -37.132812 534.914062 -43.933594 532.773438 -50.738281 530.832031 C -46.269531 531.027344 -41.601562 531.222656 -37.132812 530.636719 C -34.796875 530.441406 -32.074219 529.472656 -31.300781 527.332031 C -30.910156 525.582031 -31.882812 523.640625 -33.046875 522.277344 C -38.101562 516.058594 -45.683594 511.972656 -53.460938 510.808594 C -61.433594 509.835938 -69.597656 511.78125 -76.207031 516.445312 C -75.039062 514.113281 -74.070312 511.78125 -73.875 509.253906 C -73.875 506.722656 -74.652344 504.199219 -76.789062 502.640625 C -79.902344 500.308594 -84.761719 501.671875 -87.289062 504.78125 C -90.011719 507.695312 -90.980469 511.585938 -91.757812 515.472656 C -92.535156 512.945312 -93.511719 510.222656 -95.257812 508.085938 C -97.007812 505.945312 -99.925781 504.390625 -102.648438 505.363281 C -106.339844 506.53125 -107.507812 511.195312 -107.3125 515.082031 C -107.117188 516.640625 -106.730469 518.195312 -106.535156 519.75 C -111.007812 519.359375 -115.671875 518.777344 -120.144531 518.777344 C -123.058594 518.777344 -126.171875 518.972656 -129.085938 519.164062 Z M -129.085938 519.164062 " fill-opacity="1" fill-rule="nonzero"/><g clip-path="url(#3742920493)"><path fill="#c7d85d" d="M -129.085938 740.601562 L -129.085938 828.472656 L 1439.996094 828.472656 L 1439.996094 580.601562 C 1391.390625 548.714844 1329.570312 533.941406 1267.359375 528.5 C 1269.691406 526.75 1271.832031 524.804688 1273.777344 522.859375 C 1276.300781 520.140625 1278.636719 516.058594 1276.691406 513.140625 C 1274.554688 510.03125 1269.691406 511 1266.777344 513.332031 C 1263.859375 515.667969 1261.722656 518.972656 1258.417969 520.527344 C 1259.195312 517.417969 1259.777344 513.332031 1257.054688 511.78125 C 1254.917969 510.613281 1252.003906 511.78125 1250.835938 513.917969 C 1249.472656 515.863281 1249.277344 518.390625 1249.085938 520.917969 C 1245.199219 515.667969 1239.171875 512.167969 1232.753906 511 C 1229.449219 510.417969 1225.367188 511 1224.203125 514.113281 C 1223.230469 517.027344 1225.757812 520.140625 1227.894531 522.082031 C 1229.644531 523.640625 1231.589844 524.804688 1233.335938 526.359375 C 1198.148438 525 1163.738281 526.164062 1132.246094 528.695312 C 1092.78125 532 1053.507812 537.636719 1014.625 545.414062 C 1002.765625 547.550781 990.910156 550.078125 979.050781 552.800781 C 923.449219 565.4375 868.625 581.378906 814.191406 598.292969 C 814.191406 596.152344 813.996094 594.015625 813.609375 592.070312 C 813.023438 589.929688 812.050781 587.988281 810.109375 587.015625 C 807.582031 586.042969 804.664062 587.792969 803.496094 590.320312 C 802.136719 592.65625 802.332031 595.375 802.527344 598.097656 C 802.527344 593.820312 797.277344 590.710938 793.582031 592.847656 C 789.886719 595.179688 790.277344 601.597656 794.167969 603.347656 C 788.722656 600.820312 782.890625 598.679688 776.863281 597.902344 C 770.835938 597.320312 764.617188 597.902344 759.367188 601.015625 C 757.035156 602.179688 754.699219 604.511719 755.285156 607.039062 C 756.0625 610.152344 760.339844 610.539062 763.644531 610.34375 C 767.53125 610.152344 771.421875 610.34375 775.308594 610.539062 C 697.542969 635.425781 620.167969 661.28125 541.238281 682.082031 C 396.988281 719.992188 248.457031 740.601562 99.347656 743.128906 C 99.929688 742.738281 100.707031 742.542969 101.289062 741.960938 C 102.84375 740.988281 104.398438 739.433594 104.011719 737.683594 C 103.425781 735.738281 100.898438 735.15625 98.957031 735.546875 C 95.066406 736.324219 92.152344 739.820312 89.429688 742.933594 C 91.957031 739.433594 92.734375 734.378906 90.988281 730.296875 C 90.207031 728.15625 88.265625 726.019531 86.125 726.605469 C 84.957031 726.992188 84.183594 727.964844 83.597656 728.9375 C 81.847656 732.042969 80.679688 735.351562 80.488281 738.851562 C 78.738281 734.769531 74.460938 731.851562 69.992188 731.851562 C 68.824219 731.851562 67.65625 732.042969 67.074219 733.015625 C 66.488281 733.992188 66.683594 735.15625 67.269531 735.933594 C 67.851562 736.90625 68.628906 737.488281 69.601562 738.070312 C 66.296875 736.710938 62.40625 736.710938 59.296875 738.070312 C 58.324219 738.460938 57.546875 739.042969 57.546875 740.015625 C 57.546875 740.796875 58.519531 741.183594 59.296875 741.570312 C 60.464844 742.15625 61.824219 742.542969 62.992188 743.128906 C 26.832031 742.933594 -9.328125 742.351562 -45.488281 740.015625 C -60.265625 739.238281 -75.234375 738.070312 -90.203125 738.070312 C -89.234375 737.101562 -88.453125 736.128906 -88.0625 734.960938 C -86.898438 731.851562 -87.871094 727.574219 -90.980469 726.410156 C -93.121094 725.632812 -95.648438 726.605469 -97.203125 728.351562 C -98.953125 729.90625 -99.921875 732.042969 -100.898438 734.183594 C -100.3125 732.628906 -100.507812 730.492188 -101.671875 729.324219 C -102.839844 727.964844 -105.171875 727.574219 -106.535156 728.742188 C -107.894531 729.710938 -108.28125 732.042969 -106.921875 733.40625 C -110.617188 731.269531 -115.089844 730.492188 -119.171875 731.269531 C -120.921875 731.65625 -122.863281 732.433594 -122.863281 734.183594 C -123.058594 735.738281 -121.503906 736.90625 -120.144531 737.683594 C -119.363281 738.265625 -118.199219 738.65625 -117.421875 739.042969 C -121.308594 739.433594 -125.199219 739.820312 -129.085938 740.601562 Z M -129.085938 740.601562 " fill-opacity="1" fill-rule="nonzero"/></g></svg>